<?xml version="1.0" encoding="utf-8"?>
<!-- Generator: Adobe Illustrator 26.1.0, SVG Export Plug-In . SVG Version: 6.00 Build 0)  -->
<svg version="1.1" id="Layer_1" xmlns="http://www.w3.org/2000/svg" xmlns:xlink="http://www.w3.org/1999/xlink" x="0px" y="0px"
	 viewBox="0 0 1000 1000" style="enable-background:new 0 0 1000 1000;" xml:space="preserve">
<style type="text/css">
	.st0{fill:url(#SVGID_1_);}
	.st1{fill:#FFFFFF;}
</style>
<linearGradient id="SVGID_1_" gradientUnits="userSpaceOnUse" x1="750.0418" y1="66.9148" x2="249.9582" y2="933.0851">
	<stop  offset="0" style="stop-color:#E9ECEF"/>
	<stop  offset="1" style="stop-color:#DEE2E6"/>
</linearGradient>
<path class="st0" d="M500,1000L500,1000C223.9,1000,0,776.1,0,500v0C0,223.9,223.9,0,500,0h0c276.1,0,500,223.9,500,500v0
	C1000,776.1,776.1,1000,500,1000z"/>
<g>
	<g>
		<path class="st1" d="M500,277.6H161.3c-6.5,0-10.6,7-7.3,12.7l82.6,143.1l9.9,17.1c9.6,16.7,13.9,35.8,13.1,55
			c-0.1,4.2-0.3,8.5-0.3,12.8c0,132.9,107.7,240.7,240.7,240.7c132.9,0,240.7-107.8,240.7-240.7c0-4.3-0.1-8.6-0.3-12.8
			C733.7,378.6,628.5,277.6,500,277.6z M500,720.8c-111.7,0-202.5-90.8-202.5-202.5c0-3.9,0.1-7.7,0.3-11.2
			c1.1-26.9-5.2-53-18.2-75.7l-9.8-17l-56.9-98.5H500c107.7,0,196.4,84,202.3,191.4c0.1,3.7,0.3,7.4,0.3,11.1
			C702.5,630.1,611.7,720.8,500,720.8z"/>
		<path class="st1" d="M838.7,277.6H636.2c59.7,33.9,105.6,89.5,127,155.8L846,290.4C849.2,284.8,845.2,277.6,838.7,277.6z"/>
		<circle class="st1" cx="424.5" cy="518.3" r="34.8"/>
		<path class="st1" d="M575.5,483.5c-19.2,0-34.8,15.6-34.8,34.8c0,19.2,15.6,34.8,34.8,34.8s34.8-15.6,34.8-34.8
			C610.2,499.1,594.7,483.5,575.5,483.5z"/>
	</g>
</g>
</svg>
