<?xml version="1.0" encoding="utf-8"?>
<!-- Generator: Adobe Illustrator 26.3.1, SVG Export Plug-In . SVG Version: 6.00 Build 0)  -->
<svg version="1.1" id="Layer_1" xmlns="http://www.w3.org/2000/svg" xmlns:xlink="http://www.w3.org/1999/xlink" x="0px" y="0px"
	 viewBox="0 0 512 512" style="enable-background:new 0 0 512 512;" xml:space="preserve">
<style type="text/css">
	.st0{fill:#FCFCFC;}
	.st1{fill:#444444;}
</style>
<circle class="st0" cx="256" cy="256" r="256"/>
<g>
	<circle class="st1" cx="256" cy="266.8" r="44.2"/>
	<path class="st1" d="M256,45C139.5,45,45,139.5,45,256s94.5,211,211,211s211-94.5,211-211S372.5,45,256,45z M374,325.8
		c0,16.3-13.2,29.5-29.5,29.5h-177c-16.3,0-29.5-13.2-29.5-29.5v-118c0-16.3,13.2-29.5,29.5-29.5h34.4l4.8-14.4
		c3-9,11.4-15.1,21-15.1h56.6c9.5,0,18,6.1,21,15.1l4.8,14.4h34.4c16.3,0,29.5,13.2,29.5,29.5V325.8z"/>
</g>
</svg>
