<?xml version="1.0" encoding="utf-8"?>
<!-- Generator: Adobe Illustrator 26.3.1, SVG Export Plug-In . SVG Version: 6.00 Build 0)  -->
<svg version="1.1" id="Layer_1" xmlns="http://www.w3.org/2000/svg" xmlns:xlink="http://www.w3.org/1999/xlink" x="0px" y="0px"
	 viewBox="0 0 511.3 512" style="enable-background:new 0 0 511.3 512;" xml:space="preserve">
<style type="text/css">
	.st0{fill:#F0F5F5;}
	.st1{fill:#444444;}
</style>
<circle class="st0" cx="255.7" cy="256" r="251"/>
<path class="st1" d="M194.1,347.8h26.2c7.3,0,13.1-5.9,13.1-13.1c0-7.3-5.9-13.1-13.1-13.1h-26.2c-7.2,0-13.1-5.9-13.1-13.1v-105
	c0-7.2,5.9-13.1,13.1-13.1h26.2c7.3,0,13.1-5.9,13.1-13.1s-5.9-13.1-13.1-13.1h-26.2c-21.7,0-39.4,17.6-39.4,39.4v105
	C154.7,330.2,172.3,347.8,194.1,347.8z M361.7,248.8l-59.1-55.8c-2.9-2.7-7.1-3.4-10.7-1.9c-3.6,1.6-5.9,5.1-5.9,9l0,29.5l-52.5,0
	c-7.3,0-13.1,5.9-13.1,13.1v26.2c0,7.2,5.9,13.1,13.1,13.1l52.5,0l0,29.1c0,3.9,2.3,7.5,5.9,9c3.6,1.6,7.8,0.8,10.7-1.9l59.1-55.8
	C365.6,259.4,365.6,252.6,361.7,248.8z"/>
</svg>
