<?xml version="1.0" encoding="utf-8"?>
<!-- Generator: Adobe Illustrator 26.3.1, SVG Export Plug-In . SVG Version: 6.00 Build 0)  -->
<svg version="1.1" id="Layer_1" xmlns="http://www.w3.org/2000/svg" xmlns:xlink="http://www.w3.org/1999/xlink" x="0px" y="0px"
	 viewBox="0 0 511.3 512" style="enable-background:new 0 0 511.3 512;" xml:space="preserve">
<style type="text/css">
	.st0{fill:#F0F5F5;stroke:#67DBB8;stroke-width:10;stroke-miterlimit:10;}
	.st1{fill:#67DBB8;}
</style>
<circle class="st0" cx="255.7" cy="256" r="251"/>
<path class="st1" d="M338.1,332.6c5,6.1,4.2,15.1-1.8,20.1c-2.7,2.2-5.9,3.3-9.1,3.3c-4.1,0-8.2-1.8-11-5.1l-60.5-72.9l-60.4,72.5
	c-2.8,3.4-6.9,5.1-11,5.1c-3.2,0-6.5-1.1-9.1-3.3c-6.1-5-6.9-14.1-1.8-20.1l63.8-76.6l-63.8-76.2c-5.1-6.1-4.2-15.1,1.8-20.1
	c6.1-5.1,15.1-4.2,20.1,1.8l60.5,72.5l60.4-72.5c5-6.1,14.1-6.9,20.1-1.8c6.1,5,6.9,14.1,1.8,20.1L274.2,256L338.1,332.6z"/>
</svg>
