<?xml version="1.0" encoding="utf-8"?>
<!-- Generator: Adobe Illustrator 26.3.1, SVG Export Plug-In . SVG Version: 6.00 Build 0)  -->
<svg version="1.1" id="Layer_1" xmlns="http://www.w3.org/2000/svg" xmlns:xlink="http://www.w3.org/1999/xlink" x="0px" y="0px"
	 viewBox="0 0 511.3 512" style="enable-background:new 0 0 511.3 512;" xml:space="preserve">
<style type="text/css">
	.st0{fill:#F0F5F5;}
	.st1{fill:#444444;}
</style>
<circle class="st0" cx="255.7" cy="256" r="251"/>
<g>
	<path class="st1" d="M221.5,287.4h-46.4l-9,28.5h-26.8l45.5-132.3H212l45.3,132.3h-26.8L221.5,287.4z M181.7,266.6H215l-16.4-52
		h-0.5L181.7,266.6z"/>
	<path class="st1" d="M263.4,267.6c0-15.5,3.3-28,10-37.5c6.7-9.5,16.1-14.3,28.3-14.3c4.9,0,9.3,1.1,13.3,3.2
		c3.9,2.1,7.4,5.1,10.4,9.1v-53.9H352v141.8h-22.8l-2.2-12c-3.1,4.5-6.7,8-10.9,10.4c-4.2,2.4-9,3.5-14.5,3.5
		c-12.1,0-21.4-4.4-28.1-13.3c-6.7-8.8-10-20.5-10-35.1V267.6z M289.9,269.5c0,8.7,1.5,15.5,4.4,20.4c2.9,5,7.6,7.5,14.2,7.5
		c3.8,0,7.1-0.8,10-2.3c2.8-1.6,5.2-3.8,7-6.8v-42.1c-1.8-3.1-4.1-5.5-7-7.3c-2.8-1.7-6.1-2.6-9.9-2.6c-6.5,0-11.2,2.9-14.2,8.7
		c-3,5.8-4.5,13.3-4.5,22.7V269.5z"/>
</g>
</svg>
