<?xml version="1.0" encoding="utf-8"?>
<!-- Generator: Adobe Illustrator 26.3.1, SVG Export Plug-In . SVG Version: 6.00 Build 0)  -->
<svg version="1.1" id="Layer_1" xmlns="http://www.w3.org/2000/svg" xmlns:xlink="http://www.w3.org/1999/xlink" x="0px" y="0px"
	 viewBox="0 0 511.3 512" style="enable-background:new 0 0 511.3 512;" xml:space="preserve">
<style type="text/css">
	.st0{fill:#F0F5F5;}
	.st1{fill:#444444;}
</style>
<circle class="st0" cx="255.7" cy="256" r="251"/>
<path class="st1" d="M249.7,132.7c3.8-1.6,8.2-1.6,12,0l106.3,45.6c6.6,2.9,10.3,10,8.9,17c-1.4,7.1-7.6,11.7-15.3,12.2v3.8
	c0,6.3-4.7,11.4-11.4,11.4H160.3c-5.9,0-11.4-5.1-11.4-11.4v-3.8c-6.8-0.4-13-5.1-14.5-12.2c-1.4-7,2.3-14.1,8.9-17L249.7,132.7z
	 M255.7,192.3c8.4,0,15.2-6.8,15.2-15.2c0-8.4-6.8-15.2-15.2-15.2c-8.4,0-15.2,6.8-15.2,15.2C240.5,185.5,247.3,192.3,255.7,192.3z
	 M194.5,328.9h19v-91.1h30.4v91.1H267v-91.1h30.4v91.1h19v-91.1h30.4V331c0.3,0.1,0.6-0.1,0.9,0.5l22.8,15.2c5.6,3.7,8,10.6,6.1,17
	c-1.9,6.4-7.8,10.8-14.5,10.8H148.9c-6.3,0-12.2-4.4-14.1-10.8c-1.9-6.4,0.5-13.3,6.1-17l22.8-15.2c0.3-0.6,0.6-0.4,0.4-0.5v-93.2
	h30.4V328.9z"/>
</svg>
