<?xml version="1.0" encoding="utf-8"?>
<!-- Generator: Adobe Illustrator 26.3.1, SVG Export Plug-In . SVG Version: 6.00 Build 0)  -->
<svg version="1.1" id="Layer_1" xmlns="http://www.w3.org/2000/svg" xmlns:xlink="http://www.w3.org/1999/xlink" x="0px" y="0px"
	 viewBox="0 0 511.3 512" style="enable-background:new 0 0 511.3 512;" xml:space="preserve">
<style type="text/css">
	.st0{fill:#F0F5F5;}
	.st1{fill:#444444;}
</style>
<circle class="st0" cx="255.7" cy="256" r="251"/>
<g>
	<path class="st1" d="M184,353.3h-41.8V144.7H184V353.3z"/>
	<path class="st1" d="M225.7,353.3V144.7h71.6c25.5,0,46.5,8.1,63,24.4c16.5,16.3,24.8,37.2,24.8,62.7v34.5
		c0,25.6-8.3,46.5-24.8,62.7c-16.5,16.2-37.5,24.3-63,24.3H225.7z M267.5,176.9v144.1h27.7c15,0,26.7-5.1,35.2-15.2
		c8.5-10.1,12.8-23.3,12.8-39.7v-34.8c0-16.1-4.3-29.2-12.8-39.4c-8.5-10.1-20.3-15.2-35.2-15.2H267.5z"/>
</g>
</svg>
