<?xml version="1.0" encoding="utf-8"?>
<!-- Generator: Adobe Illustrator 26.3.1, SVG Export Plug-In . SVG Version: 6.00 Build 0)  -->
<svg version="1.1" id="Layer_1" xmlns="http://www.w3.org/2000/svg" xmlns:xlink="http://www.w3.org/1999/xlink" x="0px" y="0px"
	 viewBox="0 0 511.3 512" style="enable-background:new 0 0 511.3 512;" xml:space="preserve">
<style type="text/css">
	.st0{fill:#F0F5F5;}
	.st1{fill:#444444;}
</style>
<circle class="st0" cx="255.7" cy="256" r="251"/>
<path class="st1" d="M354.4,164.9c12.6,0,22.8,10.2,22.8,22.8c0,7.2-3.4,13.9-9.1,18.2l-103.3,77.5c-5.4,4-12.8,4-18.2,0
	l-103.3-77.5c-5.7-4.3-9.1-11.1-9.1-18.2c0-12.6,10.2-22.8,22.8-22.8H354.4z M237.4,295.5c10.8,8.1,25.6,8.1,36.4,0L377.1,218v98.7
	c0,16.8-13.6,30.4-30.4,30.4H164.5c-16.8,0-30.4-13.6-30.4-30.4V218L237.4,295.5z"/>
</svg>
