<?xml version="1.0" encoding="utf-8"?>
<!-- Generator: Adobe Illustrator 26.3.1, SVG Export Plug-In . SVG Version: 6.00 Build 0)  -->
<svg version="1.1" id="Layer_1" xmlns="http://www.w3.org/2000/svg" xmlns:xlink="http://www.w3.org/1999/xlink" x="0px" y="0px"
	 viewBox="0 0 511.3 512" style="enable-background:new 0 0 511.3 512;" xml:space="preserve">
<style type="text/css">
	.st0{fill:#F0F5F5;}
	.st1{fill:#444444;}
</style>
<circle class="st0" cx="255.7" cy="256" r="251"/>
<path class="st1" d="M255.7,377.6c-67.2,0-121.6-54.4-121.6-121.6s54.4-121.6,121.6-121.6S377.3,188.8,377.3,256
	S322.8,377.6,255.7,377.6z M244.3,256c0,3.8,1.9,7.4,5.1,9.1l45.6,30.4c5.2,3.9,12.3,2.5,15.4-2.8c3.9-5.2,2.5-12.3-2.8-15.8
	l-40.5-27v-58.5c0-6.3-5.1-11.4-11.8-11.4c-5.9,0-11.4,5.1-11.4,11.4L244.3,256z"/>
</svg>
