<?xml version="1.0" encoding="utf-8"?>
<!-- Generator: Adobe Illustrator 26.3.1, SVG Export Plug-In . SVG Version: 6.00 Build 0)  -->
<svg version="1.1" id="Layer_1" xmlns="http://www.w3.org/2000/svg" xmlns:xlink="http://www.w3.org/1999/xlink" x="0px" y="0px"
	 viewBox="0 0 511.3 512" style="enable-background:new 0 0 511.3 512;" xml:space="preserve">
<style type="text/css">
	.st0{fill:#F0F5F5;}
	.st1{fill:#67DBB8;}
</style>
<circle class="st0" cx="255.7" cy="256" r="251"/>
<path class="st1" d="M372.3,315.9l-10.6,46.1c-1.5,6.5-7.2,11.1-13.9,11.1c-115.3,0-209.1-93.8-209.1-209.1
	c0-6.7,4.6-12.4,11.1-13.9l46.1-10.6c6.7-1.6,13.6,1.9,16.4,8.3l21.3,49.6c2.5,5.8,0.8,12.6-4.1,16.7l-24.6,19.8
	c15.5,31.6,41.2,57.4,72.9,72.9l20.1-24.6c4-4.9,10.8-6.6,16.7-4.1l49.6,21.3C370,302.2,373.8,309.2,372.3,315.9z"/>
</svg>
