<?xml version="1.0" encoding="utf-8"?>
<!-- Generator: Adobe Illustrator 26.3.1, SVG Export Plug-In . SVG Version: 6.00 Build 0)  -->
<svg version="1.1" id="Layer_1" xmlns="http://www.w3.org/2000/svg" xmlns:xlink="http://www.w3.org/1999/xlink" x="0px" y="0px"
	 viewBox="0 0 576 512" style="enable-background:new 0 0 576 512;" xml:space="preserve">
<style type="text/css">
	.st0{fill:#BDBDBD;}
</style>
<g>
	<path class="st0" d="M288.4,10c5.6,0,11,1.7,14.6,4.6L558.2,239c8.6,7.5,7.9,13.3,7.7,15.3l-0.1,0.6v0.6c0,12-10.1,22.1-22,22.1
		h-32h-10l0,10l0.7,160.1c0,2.1-0.1,4.3-0.4,7l-0.1,0.6v0.6V472c0,16.5-13.5,30-30,30h-15c-0.8-0.2-1.9-0.4-3.3-0.4
		c-0.4,0-0.8,0-1.1,0.1c-0.4,0-0.8-0.1-1.2-0.1c-1.5,0-2.7,0.3-3.5,0.4H392c-16.5,0-30-13.5-30-30v-88c0-23.2-18.8-42-42-42h-64
		c-23.2,0-42,18.8-42,42v88c0,16.5-13.5,30-30,30h-55.9c-1.2,0-2.5-0.1-3.8-0.2l-0.7,0l-0.7,0.1c-1,0.1-2,0.2-2.8,0.2h-16
		c-16.5,0-30-13.5-30-30V360c0-0.7,0-1.5,0.1-2.1l0-0.3v-0.3v-69.6v-10h-10h-32c-12.6,0-22-9.5-22-22.1c0-6.6,2.2-11.9,6.9-16.7
		L273,15.6l0.3-0.2l0.2-0.2C277.7,10.8,282.3,10,288.4,10 M288.4,0c-7,0-15,1-22,8L10,231.5c-7,7-10,15-10,24c0,18,14,32.1,32,32.1
		h32v69.6c-0.1,0.9-0.1,1.9-0.1,2.8v112c0,22.1,17.9,40,40,40h16c1.2,0,2.4-0.1,3.6-0.2c1.5,0.1,3,0.2,4.5,0.2H184
		c22.1,0,40-17.9,40-40v-88c0-17.7,14.3-32,32-32h64c17.7,0,32,14.3,32,32v88c0,22.1,17.9,40,40,40h56.5c1,0,1.9-0.4,2.9-0.4
		c0.4,0,0.9,0.1,1.3,0.3c0.3-0.2,0.7-0.3,1-0.3c0.8,0,1.5,0.4,2.3,0.4h16c22.1,0,40-17.9,40-40v-16.2c0.3-2.7,0.5-5.3,0.5-8.1
		l-0.7-160.1h32c17,0,32-14.1,32-32.1c1.1-9-3-17-11-24L309.5,7C303.4,2,295.4,0,288.4,0L288.4,0z"/>
</g>
</svg>
