<?xml version="1.0" encoding="utf-8"?>
<!-- Generator: Adobe Illustrator 26.3.1, SVG Export Plug-In . SVG Version: 6.00 Build 0)  -->
<svg version="1.1" id="Layer_1" xmlns="http://www.w3.org/2000/svg" xmlns:xlink="http://www.w3.org/1999/xlink" x="0px" y="0px"
	 viewBox="0 0 511.3 512" style="enable-background:new 0 0 511.3 512;" xml:space="preserve">
<style type="text/css">
	.st0{fill:#F0F5F5;}
	.st1{fill:#444444;}
</style>
<circle class="st0" cx="255.7" cy="256" r="251"/>
<path class="st1" d="M227.4,150.9v14.2H284v-14.2c0-7.8,6.3-14.2,14.2-14.2c7.8,0,14.2,6.3,14.2,14.2v14.2h21.2
	c11.7,0,21.2,9.5,21.2,21.2v21.2H156.6v-21.2c0-11.7,9.5-21.2,21.2-21.2h21.2v-14.2c0-7.8,6.3-14.2,14.2-14.2
	C221,136.8,227.4,143.1,227.4,150.9z M156.6,221.7h198.1V342c0,11.7-9.5,21.2-21.2,21.2H177.8c-11.7,0-21.2-9.5-21.2-21.2V221.7z
	 M184.9,271.2c0,3.9,3.2,7.1,7.1,7.1h14.2c3.9,0,7.1-3.2,7.1-7.1v-14.2c0-3.9-3.2-7.1-7.1-7.1H192c-3.9,0-7.1,3.2-7.1,7.1V271.2z
	 M241.5,271.2c0,3.9,3.2,7.1,7.1,7.1h14.2c3.9,0,7.1-3.2,7.1-7.1v-14.2c0-3.9-3.2-7.1-7.1-7.1h-14.2c-3.9,0-7.1,3.2-7.1,7.1V271.2z
	 M305.2,250c-3.9,0-7.1,3.2-7.1,7.1v14.2c0,3.9,3.2,7.1,7.1,7.1h14.2c3.9,0,7.1-3.2,7.1-7.1v-14.2c0-3.9-3.2-7.1-7.1-7.1H305.2z
	 M184.9,327.8c0,3.9,3.2,7.1,7.1,7.1h14.2c3.9,0,7.1-3.2,7.1-7.1v-14.2c0-3.9-3.2-7.1-7.1-7.1H192c-3.9,0-7.1,3.2-7.1,7.1V327.8z
	 M248.6,306.6c-3.9,0-7.1,3.2-7.1,7.1v14.2c0,3.9,3.2,7.1,7.1,7.1h14.2c3.9,0,7.1-3.2,7.1-7.1v-14.2c0-3.9-3.2-7.1-7.1-7.1H248.6z
	 M298.1,327.8c0,3.9,3.2,7.1,7.1,7.1h14.2c3.9,0,7.1-3.2,7.1-7.1v-14.2c0-3.9-3.2-7.1-7.1-7.1h-14.2c-3.9,0-7.1,3.2-7.1,7.1V327.8z"
	/>
</svg>
