<?xml version="1.0" encoding="utf-8"?>
<!-- Generator: Adobe Illustrator 26.3.1, SVG Export Plug-In . SVG Version: 6.00 Build 0)  -->
<svg version="1.1" id="Layer_1" xmlns="http://www.w3.org/2000/svg" xmlns:xlink="http://www.w3.org/1999/xlink" x="0px" y="0px"
	 viewBox="0 0 511.3 512" style="enable-background:new 0 0 511.3 512;" xml:space="preserve">
<style type="text/css">
	.st0{fill:#F0F5F5;}
	.st1{fill:#444444;}
</style>
<circle class="st0" cx="255.7" cy="256" r="251"/>
<path class="st1" d="M195,161.5c-15.8-0.3-34,4-53,12.3c-4.8,2.1-7.8,7-7.8,12.3V337c0,4.9,5.1,8.2,9.5,6.2
	c53.3-24.9,92.7,4.6,94.4,5.9c1.2,0.9,2.6,1.4,4.1,1.4c5.2,0,6.7-4.8,6.7-6.7v-162c0-2.2-1.1-4.3-2.9-5.5
	C245.2,175.7,225.6,162.1,195,161.5z M369.3,173.9c-19-8.3-37.3-12.5-53-12.3c-30.6,0.6-49.8,14.2-51,14.7c-1.8,1.3-2.9,3.3-2.9,5.5
	v161.6c0,2.2,1.5,7.1,6.7,7.1c1.5,0,2.9-0.5,4.1-1.4c1.7-1.3,41.1-30.9,94.4-5.9c4.4,2.1,9.5-1.3,9.5-6.2l0-150.9
	C376.8,180.9,374.1,176,369.3,173.9z"/>
</svg>
